<svg version="1.1" id="Layer_1" xmlns="http://www.w3.org/2000/svg" xmlns:xlink="http://www.w3.org/1999/xlink" x="0px" y="0px"
	 width="100%" viewBox="0 0 495 145" enable-background="new 0 0 495 145" xml:space="preserve">
<path fill="#FEFEFE" opacity="1.000000" stroke="none" 
	d="
M324.000000,146.000000 
	C216.000015,146.000000 108.500038,146.000000 1.000043,146.000000 
	C1.000029,97.666695 1.000029,49.333389 1.000014,1.000063 
	C165.999939,1.000042 330.999878,1.000042 495.999878,1.000021 
	C495.999908,49.333267 495.999908,97.666534 495.999939,145.999908 
	C438.833344,146.000000 381.666656,146.000000 324.000000,146.000000 
M209.255173,101.072021 
	C207.426880,101.091110 205.598602,101.110207 203.292084,100.865273 
	C202.627426,100.617798 201.962784,100.370323 200.336990,100.048546 
	C197.440323,100.079636 194.543671,100.110725 190.964844,100.236618 
	C189.889969,102.899933 188.632126,105.506790 187.788300,108.241409 
	C186.818222,111.385239 186.214523,114.642120 185.451675,117.849899 
	C181.572586,101.783073 181.572586,101.783073 179.164688,100.367767 
	C177.630981,105.099838 182.238220,125.368462 186.335541,128.837265 
	C187.763763,122.834167 189.080765,117.298492 190.419632,111.670975 
	C194.404358,116.408669 191.923721,123.973648 197.825256,129.141144 
	C199.682541,121.393982 201.292374,114.679047 203.679749,107.949997 
	C204.715164,107.982849 205.750580,108.015701 206.805511,108.977348 
	C207.182877,113.903107 207.049652,118.939850 208.089142,123.721672 
	C209.025497,128.029083 213.974350,129.539001 217.675323,127.233276 
	C218.479584,126.732208 218.882416,125.586792 219.470139,124.738152 
	C218.498917,124.523071 217.300049,123.833542 216.594467,124.172081 
	C212.818970,125.983559 211.342743,124.056206 210.626678,120.783165 
	C210.243851,119.033195 210.065933,117.238403 209.749649,115.162636 
	C213.053741,114.794975 216.933304,115.471077 218.655884,113.852135 
	C220.295258,112.311363 220.463013,108.208542 219.895233,105.524643 
	C218.742264,100.074593 215.862167,99.049057 209.255173,101.072021 
M209.220520,35.459175 
	C209.070084,39.297741 208.919647,43.136303 208.537491,47.842575 
	C208.355774,53.063633 209.320404,57.798660 214.094025,60.911350 
	C219.175980,64.225098 230.575119,64.113945 235.603851,60.581444 
	C238.207306,58.752613 240.704865,55.809708 238.038620,53.281921 
	C236.453491,51.779083 232.445999,52.622124 229.557953,52.830742 
	C228.696793,52.892944 228.051651,54.545464 227.111938,55.179432 
	C224.110260,57.204487 220.522156,55.662575 219.962234,52.076019 
	C219.719452,50.520958 219.921509,48.896446 219.921509,47.008980 
	C224.996567,47.008980 229.645706,47.189335 234.266891,46.909077 
	C235.839218,46.813725 238.680954,45.511604 238.657578,44.840515 
	C238.507202,40.525005 237.722473,36.231602 236.918365,31.264400 
	C233.277588,29.858101 229.636795,28.451803 225.122345,26.850384 
	C215.630417,26.661064 212.206268,28.458408 209.220520,35.459175 
M172.319305,12.001760 
	C170.947571,13.340550 169.575836,14.679340 168.017838,16.936619 
	C167.956894,30.256580 167.826294,43.576775 167.870636,56.896385 
	C167.887421,61.937546 170.295395,63.980587 174.594360,63.138695 
	C178.230637,62.426579 178.683624,59.531300 178.788818,56.667885 
	C178.956955,52.090870 178.833801,47.503159 178.833801,43.199860 
	C182.694321,43.199860 185.765213,43.199860 189.009033,43.199860 
	C189.009033,48.207676 188.913910,52.859474 189.042496,57.505077 
	C189.128052,60.595612 190.233597,63.003838 193.918854,63.233986 
	C197.688171,63.469387 199.796341,61.485703 199.861389,58.050728 
	C200.113495,44.735443 200.363831,31.403767 199.833084,18.109404 
	C199.761597,16.318789 195.433624,13.886730 192.716888,13.222081 
	C189.449982,12.422826 188.985123,15.512290 188.993484,18.173546 
	C189.007904,22.760780 188.997482,27.348095 188.997482,32.000046 
	C186.783478,32.000046 185.285233,32.026901 183.788422,31.992334 
	C182.351807,31.959156 180.916656,31.862305 179.169907,31.778519 
	C179.169907,29.457144 179.174591,27.487617 179.168610,25.518122 
	C179.162552,23.520092 179.345581,21.496225 179.090775,19.529675 
	C178.617142,15.874233 178.231598,11.965323 172.319305,12.001760 
M17.448353,60.772877 
	C19.663628,64.203987 23.270628,65.501137 26.513182,63.894112 
	C28.879171,62.721512 30.906651,59.608994 31.778351,56.935253 
	C33.697369,51.049084 34.789478,44.893318 36.574417,37.344845 
	C37.470104,39.823441 37.928745,40.807514 38.182354,41.841858 
	C39.567429,47.490948 40.878300,53.158230 42.262920,58.807434 
	C43.110851,62.266979 45.210011,64.297035 48.925282,64.393288 
	C52.669498,64.490280 55.665123,63.022076 56.631878,59.359207 
	C60.151402,46.024315 63.598694,32.662430 66.556511,19.197222 
	C66.926582,17.512495 64.615189,14.218383 62.784073,13.421666 
	C61.518967,12.871219 58.253872,14.879200 57.125488,16.572292 
	C55.737137,18.655447 55.585064,21.587349 54.997791,24.174908 
	C53.274071,31.769705 51.599453,39.375645 49.905605,46.977222 
	C48.550491,45.975571 48.223347,45.082188 48.022331,44.161274 
	C46.144245,35.557228 44.540863,26.879940 42.242279,18.390556 
	C41.686604,16.338272 38.884983,13.591064 37.060635,13.548597 
	C35.203892,13.505377 32.898136,16.135460 31.506861,18.102667 
	C30.442270,19.607960 30.484934,21.901573 30.053759,23.848679 
	C28.342201,31.577717 26.637974,39.308376 24.601282,48.531731 
	C23.727049,46.040726 23.261322,45.047707 23.030392,44.002800 
	C21.201006,35.725288 19.457613,27.428614 17.599031,19.157778 
	C16.772158,15.478122 15.113676,12.101897 10.601357,13.264125 
	C6.385942,14.349883 6.515621,17.827761 7.421480,21.394789 
	C10.693445,34.278896 13.886424,47.183064 17.448353,60.772877 
M126.867088,64.187584 
	C134.205017,64.056274 138.368591,61.296326 138.924881,55.047840 
	C139.466522,48.963676 139.481155,42.739979 138.847275,36.669426 
	C138.193405,30.407347 131.918991,26.482321 125.980003,28.116873 
	C123.970169,28.670031 122.234169,30.218100 120.146210,31.444752 
	C120.146210,27.549076 120.184258,24.054585 120.135834,20.561295 
	C120.084229,16.838663 119.476509,13.370265 114.769379,13.042872 
	C111.027885,12.782642 109.048332,15.363616 109.017380,20.677523 
	C108.946625,32.826054 108.808578,44.980606 109.156372,57.119576 
	C109.223366,59.457722 110.826439,62.856560 112.703819,63.790722 
	C115.871376,65.366859 119.137955,63.974987 120.187012,60.403954 
	C122.216621,61.676510 124.133911,62.878647 126.867088,64.187584 
M297.486389,27.786863 
	C296.211975,27.444000 294.956512,26.979799 293.660156,26.777113 
	C281.176727,24.825270 274.530731,30.424774 274.460571,42.930626 
	C274.446594,45.422794 274.358032,47.929852 274.579956,50.405289 
	C275.383881,59.372292 281.047485,64.117180 290.453979,63.847473 
	C299.741638,63.581165 304.707336,58.876801 305.083618,49.801964 
	C305.227997,46.320522 305.127563,42.824478 305.026306,39.338352 
	C304.880493,34.314976 302.819794,30.385395 297.486389,27.786863 
M71.962112,34.731167 
	C71.664093,41.465935 70.827293,48.242241 71.341644,54.914383 
	C71.538635,57.469856 74.329834,60.678524 76.794853,62.041706 
	C83.472023,65.734238 90.607414,65.104408 97.320473,61.717518 
	C100.150253,60.289825 102.016701,57.704384 100.489113,54.291275 
	C99.439018,51.945038 94.052399,51.767056 91.455070,53.832989 
	C90.686646,54.444202 90.193428,55.407791 89.413116,55.996555 
	C86.328453,58.324032 82.529930,56.793545 81.963554,52.949329 
	C81.736710,51.409622 81.926231,49.808567 81.926231,48.010193 
	C84.788170,48.010193 87.101776,48.010437 89.415382,48.010124 
	C91.745056,48.009811 94.140778,48.343178 96.383011,47.900070 
	C98.103638,47.560040 100.372581,46.637936 101.099945,45.279728 
	C103.015732,41.702377 100.767776,33.579601 97.702972,31.000956 
	C91.063202,25.414434 77.419670,27.024887 71.962112,34.731167 
M247.433075,37.705811 
	C247.487045,44.524464 247.441116,51.346050 247.641312,58.160408 
	C247.728455,61.126022 249.229233,63.227165 252.549332,63.321285 
	C255.941864,63.417454 257.913666,61.754925 258.182709,58.369034 
	C258.419312,55.391842 258.535583,52.398487 258.550446,49.411503 
	C258.596069,40.223801 258.637360,40.412956 267.021820,37.307800 
	C268.693787,36.688587 270.258759,34.146839 270.654785,32.238739 
	C270.965179,30.743404 269.666016,27.649187 268.598206,27.408112 
	C266.652710,26.968878 263.946716,27.564613 262.302216,28.755894 
	C260.516510,30.049477 259.579010,32.514038 258.045197,34.806461 
	C257.948395,33.571457 257.957825,32.737228 257.806427,31.933302 
	C257.277435,29.124477 256.221893,26.819120 252.780426,26.829645 
	C249.125031,26.840824 247.929230,29.205688 247.566940,32.285278 
	C247.392899,33.764874 247.469910,35.273998 247.433075,37.705811 
M443.074677,120.366119 
	C443.399567,122.975067 443.724457,125.584007 444.049347,128.192947 
	C444.639893,128.152710 445.230438,128.112457 445.820984,128.072205 
	C448.925079,120.177216 442.849762,109.891525 452.215698,102.753883 
	C456.239014,111.143555 453.521637,119.964188 455.890625,128.168655 
	C457.095917,126.972313 457.826355,125.698845 457.866821,124.403801 
	C458.001831,120.087341 457.459259,115.706352 458.019684,111.461433 
	C458.407349,108.525040 460.186554,105.772362 461.343964,102.937592 
	C461.929108,103.086548 462.514252,103.235504 463.099396,103.384460 
	C467.772919,110.921234 462.643158,120.476753 467.522644,128.047256 
	C468.357605,121.453735 468.794342,114.923752 468.253357,108.475807 
	C467.478302,99.238632 463.901031,97.772583 457.358124,102.510124 
	C454.848297,101.512337 452.885681,100.266068 450.811707,100.039665 
	C448.769257,99.816719 446.613983,100.627419 443.074707,101.227737 
	C443.074707,106.614098 443.074707,113.009102 443.074677,120.366119 
M30.591991,127.964737 
	C31.030474,126.504135 31.777426,125.058105 31.847281,123.580078 
	C32.027977,119.756844 31.862473,115.918724 31.924585,112.087990 
	C31.987732,108.193642 33.602135,105.203972 37.981190,102.667671 
	C38.669624,105.605721 39.536068,107.883507 39.678101,110.205597 
	C39.972614,115.020592 39.772682,119.864906 40.027126,124.683907 
	C40.091068,125.894989 41.104744,127.055916 41.681957,128.239899 
	C42.130104,128.018311 42.578247,127.796730 43.026394,127.575150 
	C43.104801,126.767105 43.254478,125.958656 43.250023,125.151070 
	C43.221550,119.988869 43.493290,114.793320 42.979782,109.677650 
	C42.682671,106.717712 41.830215,103.111252 39.855465,101.257751 
	C38.432125,99.921791 34.745228,100.997452 32.017029,100.997452 
	C31.388048,93.866806 32.721226,86.285553 30.448462,78.975731 
	C29.302511,79.832268 28.788755,80.679184 28.778105,81.532379 
	C28.601664,95.665718 28.450876,109.799774 28.422070,123.933922 
	C28.419348,125.270035 29.271420,126.607880 30.591991,127.964737 
M268.614014,127.946770 
	C269.752991,126.189964 271.844391,124.451744 271.879089,122.673409 
	C272.138733,109.368103 272.030121,96.054527 271.912598,82.744637 
	C271.901001,81.431068 271.055145,80.124870 270.596497,78.815247 
	C270.033264,78.895653 269.470001,78.976067 268.906738,79.056480 
	C268.906738,85.862549 268.906738,92.668617 268.906738,99.377777 
	C260.575470,100.320648 257.719055,102.964851 257.204742,110.420753 
	C256.967621,113.858360 257.386932,117.417831 258.032532,120.822701 
	C259.140656,126.666939 261.757294,128.416824 268.614014,127.946770 
M228.068237,89.532608 
	C227.396164,86.216805 229.484039,82.336395 225.867294,78.534187 
	C225.653458,80.685783 225.454330,81.809608 225.443253,82.935287 
	C225.315811,95.900833 225.118896,108.867378 225.213577,121.831657 
	C225.228149,123.827690 226.569199,127.483498 227.381027,127.507378 
	C230.450577,127.597656 234.871063,127.563995 236.398376,125.660706 
	C240.916229,120.030708 240.855133,113.015633 239.017670,106.201401 
	C237.570084,100.833046 233.333908,99.406868 228.066406,99.875847 
	C228.066406,96.452888 228.066406,93.477409 228.068237,89.532608 
M374.543182,122.274796 
	C374.307129,107.883270 374.071045,93.491753 373.834991,79.100227 
	C373.064178,79.056366 372.293365,79.012512 371.522552,78.968651 
	C371.341278,82.295998 371.083435,85.621414 370.999451,88.951210 
	C370.908264,92.566582 370.978790,96.186020 370.978790,98.255089 
	C367.335510,100.255928 364.123779,101.141106 362.257965,103.229034 
	C358.481049,107.455528 358.681824,121.292511 362.708282,125.405304 
	C364.423462,127.157204 367.953247,127.818100 370.595947,127.689575 
	C371.933502,127.624535 373.132019,124.699875 374.543182,122.274796 
M485.733948,103.910522 
	C485.210663,103.266060 484.794037,102.218994 484.145508,102.047142 
	C481.403931,101.320648 478.542755,100.334717 475.837646,100.597931 
	C474.983093,100.681076 473.932281,104.353027 473.905182,106.394928 
	C473.764008,117.033890 473.884247,127.677361 474.022949,138.317841 
	C474.043213,139.873291 474.650696,141.421097 474.986450,142.972427 
	C475.627167,142.867508 476.267883,142.762589 476.908600,142.657654 
	C476.908600,137.954422 476.908600,133.251175 476.908600,128.714981 
	C485.116028,126.694023 487.669861,124.047531 487.859344,116.276230 
	C487.953674,112.408119 486.709381,108.507370 485.733948,103.910522 
M15.303585,124.091370 
	C15.625620,125.458611 15.947656,126.825851 16.269691,128.193085 
	C16.879896,128.135071 17.490101,128.077057 18.100306,128.019043 
	C20.656500,112.846321 17.173231,97.379997 18.933401,82.651901 
	C21.169493,81.897812 22.907951,81.311546 25.515209,80.432289 
	C19.777807,77.435638 11.648161,77.701225 8.371956,80.939949 
	C10.754230,81.493042 12.669546,81.937721 15.317572,82.552521 
	C15.317572,95.987572 15.317572,109.580475 15.303585,124.091370 
M115.843231,111.799438 
	C115.526741,109.495529 115.468834,107.117058 114.831184,104.905762 
	C113.946541,101.837936 112.134094,99.473412 108.413605,99.950119 
	C106.192398,100.234726 103.998184,100.729996 101.188683,101.240067 
	C101.188683,109.521980 101.188683,118.574455 101.188683,127.626930 
	C101.664909,127.832565 102.141129,128.038208 102.617355,128.243835 
	C103.140793,127.114937 104.059914,126.005486 104.116554,124.853630 
	C104.320168,120.712578 103.754417,116.480385 104.405037,112.431366 
	C104.933289,109.143860 106.789337,106.069695 108.056519,102.900917 
	C108.807205,102.996284 109.557899,103.091652 110.308586,103.187019 
	C110.882698,105.246216 111.826607,107.282066 111.958382,109.369186 
	C112.292381,114.659126 112.197083,119.975029 112.438416,125.273026 
	C112.481071,126.209381 113.319534,127.109489 113.790497,128.026337 
	C114.400177,127.077988 115.472565,126.160851 115.538994,125.175873 
	C115.818008,121.038681 115.796150,116.881203 115.843231,111.799438 
M80.653664,98.083565 
	C79.795135,99.218224 78.936600,100.352875 78.884979,100.421097 
	C79.613449,104.417458 80.490456,107.468315 80.656219,110.557335 
	C80.895180,115.010490 80.485771,119.495934 80.640488,123.957626 
	C80.687157,125.303467 81.687996,126.616211 82.251770,127.944115 
	C82.803276,126.607201 83.798615,125.281052 83.831375,123.931541 
	C83.995071,117.186218 83.906281,110.434776 83.906281,103.983810 
	C86.033989,103.242157 87.536400,102.718468 89.038803,102.194771 
	C88.993317,101.748772 88.947830,101.302780 88.902344,100.856781 
	C87.308281,100.373940 85.714226,99.891090 84.676117,99.576645 
	C84.676117,93.596245 84.676117,87.914627 84.676117,82.611572 
	C86.793823,82.430725 88.117928,82.317650 89.442024,82.204567 
	C89.377632,81.610344 89.492104,80.610275 89.218895,80.489861 
	C87.789894,79.860062 85.647789,78.600349 84.894684,79.143059 
	C83.218842,80.350754 81.396103,82.377708 81.114990,84.288719 
	C80.493919,88.510712 80.787903,92.867294 80.653664,98.083565 
M289.129211,103.467529 
	C285.107147,98.426514 280.144226,98.822784 277.873810,104.678123 
	C275.317322,111.271271 275.657318,118.082542 278.292114,124.589035 
	C279.814545,128.348679 284.876465,129.494644 287.973846,127.062866 
	C288.671814,126.514885 288.799530,125.240616 289.189758,124.300674 
	C288.305786,124.217941 287.240906,123.774071 286.567383,124.111465 
	C282.395752,126.201225 281.173798,123.626892 280.444946,120.355515 
	C280.090576,118.765015 280.032288,117.108559 279.803772,115.175751 
	C281.551788,114.976151 283.002228,114.734985 284.461365,114.657150 
	C290.427734,114.338860 291.332550,113.304642 290.448669,107.475479 
	C290.277252,106.344955 289.826019,105.256859 289.129211,103.467529 
M51.342995,119.710335 
	C51.226860,118.264130 51.110722,116.817924 50.979099,115.178856 
	C52.381725,114.979446 53.511635,114.742477 54.652065,114.669159 
	C61.647385,114.219406 63.650200,111.430634 60.830696,104.966293 
	C59.929920,102.901070 57.226700,100.251060 55.419098,100.303703 
	C53.221981,100.367668 50.076309,102.542015 49.135334,104.617065 
	C46.200932,111.088066 46.795780,117.965462 49.345257,124.496529 
	C50.829918,128.299835 55.729118,129.483139 58.995899,127.115578 
	C59.724762,126.587341 59.945702,125.358253 60.400490,124.451843 
	C59.524105,124.299599 58.438576,123.738091 57.805359,124.061684 
	C53.771343,126.123131 52.348431,123.972038 51.342995,119.710335 
M154.092499,117.332016 
	C154.485809,120.095253 154.473923,123.013504 155.446335,125.555183 
	C155.920074,126.793495 158.206848,127.919785 159.718597,127.981712 
	C160.785248,128.025391 161.959885,126.223724 162.995331,125.157578 
	C163.114182,125.035202 162.647476,124.344109 162.346771,123.685730 
	C161.108093,124.016449 159.935837,124.329430 157.994171,124.847832 
	C157.994171,117.570251 157.994171,110.737625 157.994171,104.517067 
	C159.873520,103.328636 161.369232,102.382805 162.864944,101.436989 
	C161.206772,100.670822 159.548615,99.904663 157.068176,98.758575 
	C157.068176,94.571205 157.068176,89.780762 157.068176,84.990318 
	C156.396896,84.917648 155.725616,84.844978 155.054337,84.772308 
	C154.364044,90.465500 153.673752,96.158691 152.876144,102.736938 
	C155.893341,106.199829 153.359085,111.520012 154.092499,117.332016 
M342.036926,122.198746 
	C343.034393,125.418060 344.726654,128.424667 348.432129,128.004471 
	C350.508881,127.768967 353.328674,126.101334 354.160980,124.310753 
	C357.157288,117.864876 356.968933,110.960518 354.170258,104.514442 
	C353.298218,102.505905 350.168060,100.031387 348.363983,100.244560 
	C346.170166,100.503807 342.897308,103.133118 342.537506,105.169411 
	C341.605103,110.446175 342.014587,115.960037 342.036926,122.198746 
M120.282608,108.227463 
	C120.689407,113.467400 120.503998,118.861465 121.806953,123.868179 
	C122.298683,125.757660 126.098907,127.280922 128.654907,127.927238 
	C129.910843,128.244812 131.769043,126.180580 133.354691,125.194229 
	C124.342667,124.701317 123.601639,123.956261 123.722061,115.099236 
	C127.060760,114.710800 130.421143,114.319839 134.501373,113.845139 
	C133.920197,110.137726 133.944168,106.893021 132.789078,104.143661 
	C132.047150,102.377693 129.550659,100.233627 127.874992,100.262375 
	C125.858696,100.296967 123.704910,102.257607 121.957100,103.781700 
	C121.091026,104.536919 121.000954,106.182022 120.282608,108.227463 
M433.601959,110.964821 
	C427.207916,112.246437 424.245514,116.478012 425.682800,122.276833 
	C426.760895,126.626457 430.897156,129.142639 435.294067,127.726814 
	C436.463196,127.350357 437.958801,125.676376 438.012787,124.536942 
	C438.287720,118.733971 438.238525,112.908157 438.077972,107.096542 
	C438.029114,105.329567 437.732391,103.231781 436.733124,101.896004 
	C434.338074,98.694298 431.051514,99.406097 428.401978,101.477524 
	C427.200623,102.416733 426.970123,104.597679 426.100128,106.695297 
	C429.592651,105.179634 431.709106,104.261154 433.825562,103.342690 
	C434.026093,105.846062 434.226624,108.349426 433.601959,110.964821 
M392.799774,112.952751 
	C392.594086,110.186043 393.058228,107.113609 391.977722,104.746201 
	C391.059296,102.734016 388.371674,100.327866 386.444946,100.308830 
	C384.441650,100.289024 381.392151,102.503487 380.579987,104.474365 
	C377.837646,111.129425 377.994659,118.181488 381.074554,124.702415 
	C381.883698,126.415588 384.884064,127.724472 387.024536,127.976730 
	C388.707306,128.175034 390.615417,126.461105 392.423431,125.596611 
	C389.308289,124.206261 385.831329,124.869003 384.493622,123.476562 
	C382.750031,121.661690 382.702759,118.217148 381.894470,115.364273 
	C385.900818,114.726112 389.136963,114.210640 392.799774,112.952751 
M305.687225,116.184151 
	C306.800354,110.918442 307.913513,105.652733 309.026642,100.387024 
	C308.239777,100.194550 307.452911,100.002075 306.666046,99.809593 
	C304.786926,106.331619 302.907837,112.853638 300.834198,120.050850 
	C298.221405,112.904030 298.404083,105.784203 294.318939,100.190582 
	C292.641510,106.566818 298.216949,126.209106 302.156555,128.345642 
	C303.262726,124.458305 304.330200,120.706985 305.687225,116.184151 
M137.787384,107.929985 
	C139.157425,110.138603 140.428299,112.417900 141.933533,114.530182 
	C142.883453,115.863174 144.708252,116.766220 145.196518,118.186653 
	C145.834137,120.041588 145.538132,122.217453 145.643799,124.255241 
	C144.049362,123.695709 142.468765,123.091202 140.854874,122.594940 
	C140.002304,122.332802 139.091721,122.259216 138.207336,122.100502 
	C138.166367,123.028946 137.733582,124.481232 138.152618,124.794640 
	C139.914078,126.112068 141.886536,127.841995 143.866577,127.956734 
	C145.503265,128.051575 147.994812,126.490387 148.823349,124.965294 
	C151.253952,120.491173 149.079834,116.677399 145.960159,113.319443 
	C144.499649,111.747398 142.627304,110.410759 141.653442,108.587265 
	C141.038132,107.435150 141.737961,105.580688 141.847900,104.041252 
	C143.240982,104.325401 144.661896,104.517723 146.016739,104.928116 
	C146.830124,105.174492 147.540421,105.761177 148.738708,106.448082 
	C148.857803,105.276581 149.187790,104.316643 148.937637,104.128647 
	C146.987503,102.663071 144.914932,100.207230 142.900848,100.226410 
	C139.027008,100.263290 137.402954,103.357071 137.787384,107.929985 
M336.771179,104.057404 
	C336.161377,102.753029 335.333038,100.268791 334.977051,100.334724 
	C332.568726,100.780769 329.506287,101.092300 328.064087,102.706169 
	C324.090027,107.153313 324.116974,121.446327 328.065186,125.855606 
	C329.378021,127.321716 332.404266,127.980980 334.511932,127.753830 
	C335.932373,127.600739 337.115631,125.247093 338.404999,123.877861 
	C338.005127,123.499161 337.605225,123.120461 337.205353,122.741753 
	C336.378906,123.169121 335.480896,123.498688 334.739014,124.041603 
	C332.194122,125.903992 330.346741,124.848289 330.022308,122.258499 
	C329.430756,117.535820 329.014648,112.702995 329.364380,107.978233 
	C329.648407,104.141685 332.038788,102.068031 336.771179,104.057404 
M413.237396,114.332802 
	C413.268402,113.171844 412.972412,111.873932 413.390686,110.875183 
	C414.736694,107.661598 413.275757,101.256477 420.502228,104.197678 
	C420.836823,104.333870 421.945801,103.618118 421.960388,103.268539 
	C421.989594,102.567924 421.699646,101.658821 421.209808,101.164337 
	C418.596649,98.526535 413.854584,99.933586 411.855713,104.048447 
	C408.485931,110.985565 409.756409,118.050087 412.176239,124.828659 
	C412.747589,126.429138 415.753754,128.152512 417.547913,128.058792 
	C419.533264,127.955070 421.413025,125.830353 423.338776,124.585770 
	C423.085480,124.137047 422.832184,123.688316 422.578888,123.239586 
	C421.968140,123.169899 421.237518,122.846367 420.765137,123.069511 
	C415.665863,125.477974 414.911957,125.104843 414.075562,119.587646 
	C413.851471,118.109734 413.606537,116.634972 413.237396,114.332802 
M92.260345,101.169930 
	C92.222168,109.146278 92.122078,117.123405 92.221291,125.098045 
	C92.234230,126.137741 93.272438,127.164688 93.835747,128.197540 
	C94.272942,128.045120 94.710144,127.892700 95.147339,127.740280 
	C95.147339,119.126137 95.184425,110.511398 95.048752,101.899391 
	C95.041168,101.418480 93.606903,100.960045 92.260345,101.169930 
z"/>
<path fill="#292E37" opacity="1.000000" stroke="none" 
	d="
M17.278790,60.426266 
	C13.886424,47.183064 10.693445,34.278896 7.421480,21.394789 
	C6.515621,17.827761 6.385942,14.349883 10.601357,13.264125 
	C15.113676,12.101897 16.772158,15.478122 17.599031,19.157778 
	C19.457613,27.428614 21.201006,35.725288 23.030392,44.002800 
	C23.261322,45.047707 23.727049,46.040726 24.601282,48.531731 
	C26.637974,39.308376 28.342201,31.577717 30.053759,23.848679 
	C30.484934,21.901573 30.442270,19.607960 31.506861,18.102667 
	C32.898136,16.135460 35.203892,13.505377 37.060635,13.548597 
	C38.884983,13.591064 41.686604,16.338272 42.242279,18.390556 
	C44.540863,26.879940 46.144245,35.557228 48.022331,44.161274 
	C48.223347,45.082188 48.550491,45.975571 49.905605,46.977222 
	C51.599453,39.375645 53.274071,31.769705 54.997791,24.174908 
	C55.585064,21.587349 55.737137,18.655447 57.125488,16.572292 
	C58.253872,14.879200 61.518967,12.871219 62.784073,13.421666 
	C64.615189,14.218383 66.926582,17.512495 66.556511,19.197222 
	C63.598694,32.662430 60.151402,46.024315 56.631878,59.359207 
	C55.665123,63.022076 52.669498,64.490280 48.925282,64.393288 
	C45.210011,64.297035 43.110851,62.266979 42.262920,58.807434 
	C40.878300,53.158230 39.567429,47.490948 38.182354,41.841858 
	C37.928745,40.807514 37.470104,39.823441 36.574417,37.344845 
	C34.789478,44.893318 33.697369,51.049084 31.778351,56.935253 
	C30.906651,59.608994 28.879171,62.721512 26.513182,63.894112 
	C23.270628,65.501137 19.663628,64.203987 17.278790,60.426266 
z"/>
<path fill="#252B34" opacity="1.000000" stroke="none" 
	d="
M173.011673,12.139570 
	C178.231598,11.965323 178.617142,15.874233 179.090775,19.529675 
	C179.345581,21.496225 179.162552,23.520092 179.168610,25.518122 
	C179.174591,27.487617 179.169907,29.457144 179.169907,31.778519 
	C180.916656,31.862305 182.351807,31.959156 183.788422,31.992334 
	C185.285233,32.026901 186.783478,32.000046 188.997482,32.000046 
	C188.997482,27.348095 189.007904,22.760780 188.993484,18.173546 
	C188.985123,15.512290 189.449982,12.422826 192.716888,13.222081 
	C195.433624,13.886730 199.761597,16.318789 199.833084,18.109404 
	C200.363831,31.403767 200.113495,44.735443 199.861389,58.050728 
	C199.796341,61.485703 197.688171,63.469387 193.918854,63.233986 
	C190.233597,63.003838 189.128052,60.595612 189.042496,57.505077 
	C188.913910,52.859474 189.009033,48.207676 189.009033,43.199860 
	C185.765213,43.199860 182.694321,43.199860 178.833801,43.199860 
	C178.833801,47.503159 178.956955,52.090870 178.788818,56.667885 
	C178.683624,59.531300 178.230637,62.426579 174.594360,63.138695 
	C170.295395,63.980587 167.887421,61.937546 167.870636,56.896385 
	C167.826294,43.576775 167.956894,30.256580 168.470062,16.523193 
	C173.725891,18.330105 172.932755,14.785725 173.011673,12.139570 
z"/>
<path fill="#272D36" opacity="1.000000" stroke="none" 
	d="
M126.459145,64.134186 
	C124.133911,62.878647 122.216621,61.676510 120.187012,60.403954 
	C119.137955,63.974987 115.871376,65.366859 112.703819,63.790722 
	C110.826439,62.856560 109.223366,59.457722 109.156372,57.119576 
	C108.808578,44.980606 108.946625,32.826054 109.017380,20.677523 
	C109.048332,15.363616 111.027885,12.782642 114.769379,13.042872 
	C119.476509,13.370265 120.084229,16.838663 120.135834,20.561295 
	C120.184258,24.054585 120.146210,27.549076 120.146210,31.444752 
	C122.234169,30.218100 123.970169,28.670031 125.980003,28.116873 
	C131.918991,26.482321 138.193405,30.407347 138.847275,36.669426 
	C139.481155,42.739979 139.466522,48.963676 138.924881,55.047840 
	C138.368591,61.296326 134.205017,64.056274 126.459145,64.134186 
M128.010406,51.947102 
	C128.011017,48.115055 128.213348,44.266605 127.903770,40.459785 
	C127.794182,39.112022 126.380524,36.765640 125.660492,36.802353 
	C124.165665,36.878574 121.608856,38.095200 121.475784,39.104916 
	C120.901344,43.463493 120.814857,47.930393 121.077293,52.326443 
	C121.149117,53.529446 123.050140,55.532005 124.113823,55.533367 
	C125.397743,55.535019 126.683907,53.797119 128.010406,51.947102 
z"/>
<path fill="#2B3139" opacity="1.000000" stroke="none" 
	d="
M297.854187,27.897377 
	C302.819794,30.385395 304.880493,34.314976 305.026306,39.338352 
	C305.127563,42.824478 305.227997,46.320522 305.083618,49.801964 
	C304.707336,58.876801 299.741638,63.581165 290.453979,63.847473 
	C281.047485,64.117180 275.383881,59.372292 274.579956,50.405289 
	C274.358032,47.929852 274.446594,45.422794 274.460571,42.930626 
	C274.530731,30.424774 281.176727,24.825270 293.660156,26.777113 
	C294.956512,26.979799 296.211975,27.444000 297.854187,27.897377 
M293.827515,37.273411 
	C291.995300,36.601013 289.933441,35.099186 288.404633,35.522518 
	C287.213074,35.852478 286.148041,38.522678 285.973022,40.248817 
	C285.607117,43.857590 285.449280,47.599957 286.046722,51.145779 
	C286.339386,52.882710 288.284515,55.284473 289.883179,55.655418 
	C292.911285,56.358055 294.181152,53.996548 294.143341,51.055580 
	C294.088013,46.748329 294.060364,42.440720 293.827515,37.273411 
z"/>
<path fill="#292E37" opacity="1.000000" stroke="none" 
	d="
M72.100189,34.368958 
	C77.419670,27.024887 91.063202,25.414434 97.702972,31.000956 
	C100.767776,33.579601 103.015732,41.702377 101.099945,45.279728 
	C100.372581,46.637936 98.103638,47.560040 96.383011,47.900070 
	C94.140778,48.343178 91.745056,48.009811 89.415382,48.010124 
	C87.101776,48.010437 84.788170,48.010193 81.926231,48.010193 
	C81.926231,49.808567 81.736710,51.409622 81.963554,52.949329 
	C82.529930,56.793545 86.328453,58.324032 89.413116,55.996555 
	C90.193428,55.407791 90.686646,54.444202 91.455070,53.832989 
	C94.052399,51.767056 99.439018,51.945038 100.489113,54.291275 
	C102.016701,57.704384 100.150253,60.289825 97.320473,61.717518 
	C90.607414,65.104408 83.472023,65.734238 76.794853,62.041706 
	C74.329834,60.678524 71.538635,57.469856 71.341644,54.914383 
	C70.827293,48.242241 71.664093,41.465935 72.100189,34.368958 
M85.564819,42.608879 
	C87.196426,42.608879 88.828033,42.608879 91.096497,42.608879 
	C90.719467,40.491596 90.959679,38.393715 90.037239,37.511536 
	C88.816895,36.344448 86.478264,35.344864 85.008636,35.735271 
	C83.665482,36.092083 82.523880,38.286743 81.966774,39.903492 
	C81.786194,40.427544 83.733940,41.684978 85.564819,42.608879 
z"/>
<path fill="#2F353E" opacity="1.000000" stroke="none" 
	d="
M247.433151,37.237782 
	C247.469910,35.273998 247.392899,33.764874 247.566940,32.285278 
	C247.929230,29.205688 249.125031,26.840824 252.780426,26.829645 
	C256.221893,26.819120 257.277435,29.124477 257.806427,31.933302 
	C257.957825,32.737228 257.948395,33.571457 258.045197,34.806461 
	C259.579010,32.514038 260.516510,30.049477 262.302216,28.755894 
	C263.946716,27.564613 266.652710,26.968878 268.598206,27.408112 
	C269.666016,27.649187 270.965179,30.743404 270.654785,32.238739 
	C270.258759,34.146839 268.693787,36.688587 267.021820,37.307800 
	C258.637360,40.412956 258.596069,40.223801 258.550446,49.411503 
	C258.535583,52.398487 258.419312,55.391842 258.182709,58.369034 
	C257.913666,61.754925 255.941864,63.417454 252.549332,63.321285 
	C249.229233,63.227165 247.728455,61.126022 247.641312,58.160408 
	C247.441116,51.346050 247.487045,44.524464 247.433151,37.237782 
z"/>
<path fill="#292E37" opacity="1.000000" stroke="none" 
	d="
M237.146072,31.930935 
	C237.722473,36.231602 238.507202,40.525005 238.657578,44.840515 
	C238.680954,45.511604 235.839218,46.813725 234.266891,46.909077 
	C229.645706,47.189335 224.996567,47.008980 219.921509,47.008980 
	C219.921509,48.896446 219.719452,50.520958 219.962234,52.076019 
	C220.522156,55.662575 224.110260,57.204487 227.111938,55.179432 
	C228.051651,54.545464 228.696793,52.892944 229.557953,52.830742 
	C232.445999,52.622124 236.453491,51.779083 238.038620,53.281921 
	C240.704865,55.809708 238.207306,58.752613 235.603851,60.581444 
	C230.575119,64.113945 219.175980,64.225098 214.094025,60.911350 
	C209.320404,57.798660 208.355774,53.063633 209.068390,47.410728 
	C213.730637,45.294281 217.862000,43.609676 222.404053,41.825935 
	C225.004974,41.016380 228.593369,43.556564 229.470123,38.965569 
	C232.253342,36.591656 234.699707,34.261295 237.146072,31.930935 
z"/>
<path fill="#5C6067" opacity="1.000000" stroke="none" 
	d="
M443.074707,119.885117 
	C443.074707,113.009102 443.074707,106.614098 443.074707,101.227737 
	C446.613983,100.627419 448.769257,99.816719 450.811707,100.039665 
	C452.885681,100.266068 454.848297,101.512337 457.358124,102.510124 
	C463.901031,97.772583 467.478302,99.238632 468.253357,108.475807 
	C468.794342,114.923752 468.357605,121.453735 467.522644,128.047256 
	C462.643158,120.476753 467.772919,110.921234 463.099396,103.384460 
	C462.514252,103.235504 461.929108,103.086548 461.343964,102.937592 
	C460.186554,105.772362 458.407349,108.525040 458.019684,111.461433 
	C457.459259,115.706352 458.001831,120.087341 457.866821,124.403801 
	C457.826355,125.698845 457.095917,126.972313 455.890625,128.168655 
	C453.521637,119.964188 456.239014,111.143555 452.215698,102.753883 
	C442.849762,109.891525 448.925079,120.177216 445.820984,128.072205 
	C445.230438,128.112457 444.639893,128.152710 444.049347,128.192947 
	C443.724457,125.584007 443.399567,122.975067 443.074707,119.885117 
z"/>
<path fill="#51565D" opacity="1.000000" stroke="none" 
	d="
M201.298126,100.122849 
	C201.962784,100.370323 202.627426,100.617798 203.480194,101.370995 
	C203.412949,103.905846 203.157578,105.934982 202.902206,107.964111 
	C201.292374,114.679047 199.682541,121.393982 197.825256,129.141144 
	C191.923721,123.973648 194.404358,116.408669 190.419632,111.670975 
	C189.080765,117.298492 187.763763,122.834167 186.335541,128.837265 
	C182.238220,125.368462 177.630981,105.099838 179.164688,100.367767 
	C181.572586,101.783073 181.572586,101.783073 185.451675,117.849899 
	C186.214523,114.642120 186.818222,111.385239 187.788300,108.241409 
	C188.632126,105.506790 189.889969,102.899933 191.446732,100.542389 
	C193.466949,106.719742 195.005264,112.591316 196.599747,118.677261 
	C198.187241,112.408035 199.742676,106.265442 201.298126,100.122849 
z"/>
<path fill="#575B62" opacity="1.000000" stroke="none" 
	d="
M30.159313,127.954834 
	C29.271420,126.607880 28.419348,125.270035 28.422070,123.933922 
	C28.450876,109.799774 28.601664,95.665718 28.778105,81.532379 
	C28.788755,80.679184 29.302511,79.832268 30.448462,78.975731 
	C32.721226,86.285553 31.388048,93.866806 32.017029,100.997452 
	C34.745228,100.997452 38.432125,99.921791 39.855465,101.257751 
	C41.830215,103.111252 42.682671,106.717712 42.979782,109.677650 
	C43.493290,114.793320 43.221550,119.988869 43.250023,125.151070 
	C43.254478,125.958656 43.104801,126.767105 43.026394,127.575150 
	C42.578247,127.796730 42.130104,128.018311 41.681957,128.239899 
	C41.104744,127.055916 40.091068,125.894989 40.027126,124.683907 
	C39.772682,119.864906 39.972614,115.020592 39.678101,110.205597 
	C39.536068,107.883507 38.669624,105.605721 37.981190,102.667671 
	C33.602135,105.203972 31.987732,108.193642 31.924585,112.087990 
	C31.862473,115.918724 32.027977,119.756844 31.847281,123.580078 
	C31.777426,125.058105 31.030474,126.504135 30.159313,127.954834 
z"/>
<path fill="#5C6067" opacity="1.000000" stroke="none" 
	d="
M268.233582,127.996338 
	C261.757294,128.416824 259.140656,126.666939 258.032532,120.822701 
	C257.386932,117.417831 256.967621,113.858360 257.204742,110.420753 
	C257.719055,102.964851 260.575470,100.320648 268.906738,99.377777 
	C268.906738,92.668617 268.906738,85.862549 268.906738,79.056480 
	C269.470001,78.976067 270.033264,78.895653 270.596497,78.815247 
	C271.055145,80.124870 271.901001,81.431068 271.912598,82.744637 
	C272.030121,96.054527 272.138733,109.368103 271.879089,122.673409 
	C271.844391,124.451744 269.752991,126.189964 268.233582,127.996338 
M262.006256,105.711472 
	C259.229370,111.165138 260.309723,116.685318 262.129639,122.032845 
	C262.554596,123.281425 264.703094,123.943413 266.058594,124.875298 
	C266.824280,123.660187 268.176331,122.479759 268.250610,121.223747 
	C268.521942,116.636444 268.495178,112.018410 268.296814,107.424210 
	C268.235229,105.997963 267.272644,104.610626 266.722534,103.205460 
	C265.298035,103.823212 263.873566,104.440964 262.006256,105.711472 
z"/>
<path fill="#51565D" opacity="1.000000" stroke="none" 
	d="
M228.067322,90.017273 
	C228.066406,93.477409 228.066406,96.452888 228.066406,99.875847 
	C233.333908,99.406868 237.570084,100.833046 239.017670,106.201401 
	C240.855133,113.015633 240.916229,120.030708 236.398376,125.660706 
	C234.871063,127.563995 230.450577,127.597656 227.381027,127.507378 
	C226.569199,127.483498 225.228149,123.827690 225.213577,121.831657 
	C225.118896,108.867378 225.315811,95.900833 225.443253,82.935287 
	C225.454330,81.809608 225.653458,80.685783 225.867294,78.534187 
	C229.484039,82.336395 227.396164,86.216805 228.067322,90.017273 
M229.378860,124.677788 
	C230.502533,124.635559 232.391464,124.969002 232.626373,124.490479 
	C234.216446,121.251366 236.492661,117.851303 236.527466,114.482437 
	C236.564407,110.906609 234.981735,106.888496 232.923904,103.869530 
	C231.601013,101.928772 228.884521,102.858582 228.882568,106.099693 
	C228.878998,112.032051 228.938477,117.964455 229.378860,124.677788 
z"/>
<path fill="#4B5058" opacity="1.000000" stroke="none" 
	d="
M374.468323,122.671455 
	C373.132019,124.699875 371.933502,127.624535 370.595947,127.689575 
	C367.953247,127.818100 364.423462,127.157204 362.708282,125.405304 
	C358.681824,121.292511 358.481049,107.455528 362.257965,103.229034 
	C364.123779,101.141106 367.335510,100.255928 370.978790,98.255089 
	C370.978790,96.186020 370.908264,92.566582 370.999451,88.951210 
	C371.083435,85.621414 371.341278,82.295998 371.522552,78.968651 
	C372.293365,79.012512 373.064178,79.056366 373.834991,79.100227 
	C374.071045,93.491753 374.307129,107.883270 374.468323,122.671455 
M371.010742,108.768539 
	C370.256714,106.871216 369.502686,104.973900 368.748657,103.076569 
	C366.997162,104.772346 363.927734,106.343338 363.753082,108.188423 
	C363.312469,112.841583 363.934113,117.658012 364.700623,122.315109 
	C364.874512,123.371696 367.363861,124.047188 368.787445,124.898094 
	C369.521027,123.649826 370.781372,122.445038 370.888702,121.145073 
	C371.201782,117.352524 371.054321,113.521957 371.010742,108.768539 
z"/>
<path fill="#4B5058" opacity="1.000000" stroke="none" 
	d="
M485.902283,104.265945 
	C486.709381,108.507370 487.953674,112.408119 487.859344,116.276230 
	C487.669861,124.047531 485.116028,126.694023 476.908600,128.714981 
	C476.908600,133.251175 476.908600,137.954422 476.908600,142.657654 
	C476.267883,142.762589 475.627167,142.867508 474.986450,142.972427 
	C474.650696,141.421097 474.043213,139.873291 474.022949,138.317841 
	C473.884247,127.677361 473.764008,117.033890 473.905182,106.394928 
	C473.932281,104.353027 474.983093,100.681076 475.837646,100.597931 
	C478.542755,100.334717 481.403931,101.320648 484.145508,102.047142 
	C484.794037,102.218994 485.210663,103.266060 485.902283,104.265945 
M484.421631,110.299438 
	C483.746429,108.443954 483.332947,106.420227 482.291534,104.800140 
	C481.725067,103.918900 480.118866,103.464455 478.927063,103.339973 
	C478.416290,103.286636 477.270660,104.553299 477.257080,105.236938 
	C477.127930,111.744431 477.180084,118.255524 477.180084,124.894485 
	C483.271790,123.822289 485.394012,119.439453 484.421631,110.299438 
z"/>
<path fill="#343941" opacity="1.000000" stroke="none" 
	d="
M237.032227,31.597668 
	C234.699707,34.261295 232.253342,36.591656 229.343140,38.623741 
	C228.266083,35.413265 226.385788,33.914936 223.545166,34.542526 
	C222.206451,34.838291 220.256668,36.226265 220.145081,37.284031 
	C219.990463,38.749756 221.306839,40.370636 221.993378,41.925079 
	C217.862000,43.609676 213.730637,45.294281 209.184235,46.976875 
	C208.919647,43.136303 209.070084,39.297741 209.891922,35.208733 
	C214.186829,33.881294 217.956116,33.129585 221.375397,31.596973 
	C223.224213,30.768299 224.475281,28.606108 225.996017,27.045506 
	C229.636795,28.451803 233.277588,29.858101 237.032227,31.597668 
z"/>
<path fill="#5E6269" opacity="1.000000" stroke="none" 
	d="
M15.310578,123.632370 
	C15.317572,109.580475 15.317572,95.987572 15.317572,82.552521 
	C12.669546,81.937721 10.754230,81.493042 8.371956,80.939949 
	C11.648161,77.701225 19.777807,77.435638 25.515209,80.432289 
	C22.907951,81.311546 21.169493,81.897812 18.933401,82.651901 
	C17.173231,97.379997 20.656500,112.846321 18.100306,128.019043 
	C17.490101,128.077057 16.879896,128.135071 16.269691,128.193085 
	C15.947656,126.825851 15.625620,125.458611 15.310578,123.632370 
z"/>
<path fill="#53585F" opacity="1.000000" stroke="none" 
	d="
M115.863846,112.265289 
	C115.796150,116.881203 115.818008,121.038681 115.538994,125.175873 
	C115.472565,126.160851 114.400177,127.077988 113.790497,128.026337 
	C113.319534,127.109489 112.481071,126.209381 112.438416,125.273026 
	C112.197083,119.975029 112.292381,114.659126 111.958382,109.369186 
	C111.826607,107.282066 110.882698,105.246216 110.308586,103.187019 
	C109.557899,103.091652 108.807205,102.996284 108.056519,102.900917 
	C106.789337,106.069695 104.933289,109.143860 104.405037,112.431366 
	C103.754417,116.480385 104.320168,120.712578 104.116554,124.853630 
	C104.059914,126.005486 103.140793,127.114937 102.617355,128.243835 
	C102.141129,128.038208 101.664909,127.832565 101.188683,127.626930 
	C101.188683,118.574455 101.188683,109.521980 101.188683,101.240067 
	C103.998184,100.729996 106.192398,100.234726 108.413605,99.950119 
	C112.134094,99.473412 113.946541,101.837936 114.831184,104.905762 
	C115.468834,107.117058 115.526741,109.495529 115.863846,112.265289 
z"/>
<path fill="#575B62" opacity="1.000000" stroke="none" 
	d="
M80.681122,97.626266 
	C80.787903,92.867294 80.493919,88.510712 81.114990,84.288719 
	C81.396103,82.377708 83.218842,80.350754 84.894684,79.143059 
	C85.647789,78.600349 87.789894,79.860062 89.218895,80.489861 
	C89.492104,80.610275 89.377632,81.610344 89.442024,82.204575 
	C88.117928,82.317650 86.793823,82.430725 84.676117,82.611572 
	C84.676117,87.914627 84.676117,93.596245 84.676117,99.576645 
	C85.714226,99.891090 87.308281,100.373940 88.902344,100.856781 
	C88.947830,101.302780 88.993317,101.748772 89.038803,102.194771 
	C87.536400,102.718468 86.033989,103.242157 83.906281,103.983810 
	C83.906281,110.434776 83.995071,117.186218 83.831375,123.931541 
	C83.798615,125.281052 82.803276,126.607201 82.251770,127.944115 
	C81.687996,126.616211 80.687157,125.303467 80.640488,123.957626 
	C80.485771,119.495934 80.895180,115.010490 80.656219,110.557335 
	C80.490456,107.468315 79.613449,104.417458 78.884979,100.421097 
	C78.936600,100.352875 79.795135,99.218224 80.681122,97.626266 
z"/>
<path fill="#575B62" opacity="1.000000" stroke="none" 
	d="
M289.316528,103.808365 
	C289.826019,105.256859 290.277252,106.344955 290.448669,107.475479 
	C291.332550,113.304642 290.427734,114.338860 284.461365,114.657150 
	C283.002228,114.734985 281.551788,114.976151 279.803772,115.175751 
	C280.032288,117.108559 280.090576,118.765015 280.444946,120.355515 
	C281.173798,123.626892 282.395752,126.201225 286.567383,124.111465 
	C287.240906,123.774071 288.305786,124.217941 289.189758,124.300674 
	C288.799530,125.240616 288.671814,126.514885 287.973846,127.062866 
	C284.876465,129.494644 279.814545,128.348679 278.292114,124.589035 
	C275.657318,118.082542 275.317322,111.271271 277.873810,104.678123 
	C280.144226,98.822784 285.107147,98.426514 289.316528,103.808365 
M283.027679,103.665970 
	C281.779083,105.883682 280.530518,108.101395 278.969788,110.873512 
	C282.589630,110.873512 284.767670,110.873512 286.945679,110.873512 
	C287.349976,110.460579 287.754242,110.047653 288.158539,109.634720 
	C286.673950,107.533058 285.189331,105.431396 283.027679,103.665970 
z"/>
<path fill="#575B62" opacity="1.000000" stroke="none" 
	d="
M51.479362,120.099030 
	C52.348431,123.972038 53.771343,126.123131 57.805359,124.061684 
	C58.438576,123.738091 59.524105,124.299599 60.400490,124.451843 
	C59.945702,125.358253 59.724762,126.587341 58.995899,127.115578 
	C55.729118,129.483139 50.829918,128.299835 49.345257,124.496529 
	C46.795780,117.965462 46.200932,111.088066 49.135334,104.617065 
	C50.076309,102.542015 53.221981,100.367668 55.419098,100.303703 
	C57.226700,100.251060 59.929920,102.901070 60.830696,104.966293 
	C63.650200,111.430634 61.647385,114.219406 54.652065,114.669159 
	C53.511635,114.742477 52.381725,114.979446 50.979099,115.178856 
	C51.110722,116.817924 51.226860,118.264130 51.479362,120.099030 
M51.136841,108.203812 
	C51.076912,114.836510 55.742954,109.328888 57.521591,111.238579 
	C57.950218,110.931000 58.378841,110.623421 58.807465,110.315834 
	C57.764439,108.017487 56.721413,105.719147 55.678391,103.420799 
	C54.237099,104.751930 52.795807,106.083054 51.136841,108.203812 
z"/>
<path fill="#51565D" opacity="1.000000" stroke="none" 
	d="
M210.168152,101.102676 
	C215.862167,99.049057 218.742264,100.074593 219.895233,105.524643 
	C220.463013,108.208542 220.295258,112.311363 218.655884,113.852135 
	C216.933304,115.471077 213.053741,114.794975 209.749649,115.162636 
	C210.065933,117.238403 210.243851,119.033195 210.626678,120.783165 
	C211.342743,124.056206 212.818970,125.983559 216.594467,124.172081 
	C217.300049,123.833542 218.498917,124.523071 219.470154,124.738152 
	C218.882416,125.586792 218.479584,126.732208 217.675323,127.233276 
	C213.974350,129.539001 209.025497,128.029083 208.089142,123.721672 
	C207.049652,118.939850 207.182877,113.903107 206.934540,108.184319 
	C208.098450,105.295090 209.133301,103.198883 210.168152,101.102676 
M216.450287,105.702538 
	C216.274765,105.037331 216.099258,104.372116 215.923752,103.706909 
	C215.616196,104.136375 215.308640,104.565834 214.335663,104.936508 
	C213.895142,104.881737 213.454620,104.826958 212.954208,104.287697 
	C212.738220,104.101540 212.522247,103.915382 212.306274,103.729218 
	C212.221222,104.193863 212.136185,104.658508 211.948792,105.877922 
	C211.201645,107.458420 210.454514,109.038925 209.497711,111.062927 
	C212.471039,111.062927 214.519577,111.062927 217.362823,111.062927 
	C216.826248,109.111191 216.399887,107.560364 216.450287,105.702538 
z"/>
<path fill="#575B62" opacity="1.000000" stroke="none" 
	d="
M154.092514,116.856209 
	C153.359085,111.520012 155.893341,106.199829 152.876144,102.736938 
	C153.673752,96.158691 154.364044,90.465500 155.054337,84.772308 
	C155.725616,84.844978 156.396896,84.917648 157.068176,84.990318 
	C157.068176,89.780762 157.068176,94.571205 157.068176,98.758575 
	C159.548615,99.904663 161.206772,100.670822 162.864944,101.436981 
	C161.369232,102.382805 159.873520,103.328636 157.994171,104.517067 
	C157.994171,110.737625 157.994171,117.570251 157.994171,124.847832 
	C159.935837,124.329430 161.108093,124.016449 162.346771,123.685730 
	C162.647476,124.344109 163.114182,125.035202 162.995331,125.157578 
	C161.959885,126.223724 160.785248,128.025391 159.718597,127.981712 
	C158.206848,127.919785 155.920074,126.793495 155.446335,125.555183 
	C154.473923,123.013504 154.485809,120.095253 154.092514,116.856209 
z"/>
<path fill="#50555C" opacity="1.000000" stroke="none" 
	d="
M341.962646,121.789001 
	C342.014587,115.960037 341.605103,110.446175 342.537506,105.169411 
	C342.897308,103.133118 346.170166,100.503807 348.363983,100.244560 
	C350.168060,100.031387 353.298218,102.505905 354.170258,104.514442 
	C356.968933,110.960518 357.157288,117.864876 354.160980,124.310753 
	C353.328674,126.101334 350.508881,127.768967 348.432129,128.004471 
	C344.726654,128.424667 343.034393,125.418060 341.962646,121.789001 
M352.323029,119.543976 
	C352.866394,113.613113 353.848907,107.570816 348.271545,102.511024 
	C343.698090,108.036102 343.442688,113.798836 344.963806,119.687668 
	C345.461060,121.612762 347.271912,123.198547 348.481995,124.939514 
	C349.712585,123.410843 350.943146,121.882164 352.323029,119.543976 
z"/>
<path fill="#50555C" opacity="1.000000" stroke="none" 
	d="
M120.421211,107.825996 
	C121.000954,106.182022 121.091026,104.536919 121.957100,103.781700 
	C123.704910,102.257607 125.858696,100.296967 127.874992,100.262375 
	C129.550659,100.233627 132.047150,102.377693 132.789078,104.143661 
	C133.944168,106.893021 133.920197,110.137726 134.501373,113.845139 
	C130.421143,114.319839 127.060760,114.710800 123.722061,115.099236 
	C123.601639,123.956261 124.342667,124.701317 133.354691,125.194229 
	C131.769043,126.180580 129.910843,128.244812 128.654907,127.927238 
	C126.098907,127.280922 122.298683,125.757660 121.806953,123.868179 
	C120.503998,118.861465 120.689407,113.467400 120.421211,107.825996 
M130.835800,107.957458 
	C129.664719,106.398331 128.493637,104.839203 127.322556,103.280075 
	C125.723083,105.595810 124.123619,107.911537 122.524147,110.227272 
	C122.979424,110.624123 123.434700,111.020966 123.889977,111.417809 
	C125.971313,109.771652 129.845596,113.937286 130.835800,107.957458 
z"/>
<path fill="#4B5058" opacity="1.000000" stroke="none" 
	d="
M434.014557,110.908813 
	C434.226624,108.349426 434.026093,105.846062 433.825562,103.342682 
	C431.709106,104.261154 429.592651,105.179634 426.100128,106.695297 
	C426.970123,104.597679 427.200623,102.416733 428.401978,101.477524 
	C431.051514,99.406097 434.338074,98.694298 436.733124,101.896004 
	C437.732391,103.231781 438.029114,105.329567 438.077972,107.096542 
	C438.238525,112.908157 438.287720,118.733971 438.012787,124.536942 
	C437.958801,125.676376 436.463196,127.350357 435.294067,127.726814 
	C430.897156,129.142639 426.760895,126.626457 425.682800,122.276833 
	C424.245514,116.478012 427.207916,112.246437 434.014557,110.908813 
M429.818695,123.496521 
	C431.255432,124.072296 432.692139,124.648064 434.592896,125.409798 
	C434.592896,121.189560 434.592896,117.722557 434.592896,114.037582 
	C428.684814,114.912613 428.208099,118.427528 429.818695,123.496521 
z"/>
<path fill="#50555C" opacity="1.000000" stroke="none" 
	d="
M392.586426,113.323959 
	C389.136963,114.210640 385.900818,114.726112 381.894470,115.364273 
	C382.702759,118.217148 382.750031,121.661690 384.493622,123.476562 
	C385.831329,124.869003 389.308289,124.206261 392.423431,125.596611 
	C390.615417,126.461105 388.707306,128.175034 387.024536,127.976730 
	C384.884064,127.724472 381.883698,126.415588 381.074554,124.702415 
	C377.994659,118.181488 377.837646,111.129425 380.579987,104.474365 
	C381.392151,102.503487 384.441650,100.289024 386.444946,100.308830 
	C388.371674,100.327866 391.059296,102.734016 391.977722,104.746201 
	C393.058228,107.113609 392.594086,110.186043 392.586426,113.323959 
M387.900330,103.830482 
	C382.109894,103.064171 383.251343,107.652306 381.942383,111.192444 
	C383.626984,111.192444 384.739502,111.226387 385.849091,111.183510 
	C387.120697,111.134377 388.389709,111.017090 390.363739,110.880821 
	C389.621002,108.367477 389.029572,106.366142 387.900330,103.830482 
z"/>
<path fill="#51565D" opacity="1.000000" stroke="none" 
	d="
M305.542480,116.569916 
	C304.330200,120.706985 303.262726,124.458305 302.156555,128.345642 
	C298.216949,126.209106 292.641510,106.566818 294.318939,100.190582 
	C298.404083,105.784203 298.221405,112.904030 300.834198,120.050850 
	C302.907837,112.853638 304.786926,106.331619 306.666046,99.809593 
	C307.452911,100.002075 308.239777,100.194550 309.026642,100.387024 
	C307.913513,105.652733 306.800354,110.918442 305.542480,116.569916 
z"/>
<path fill="#50555C" opacity="1.000000" stroke="none" 
	d="
M137.709152,107.571175 
	C137.402954,103.357071 139.027008,100.263290 142.900848,100.226410 
	C144.914932,100.207230 146.987503,102.663071 148.937637,104.128647 
	C149.187790,104.316643 148.857803,105.276581 148.738708,106.448082 
	C147.540421,105.761177 146.830124,105.174492 146.016739,104.928116 
	C144.661896,104.517723 143.240982,104.325401 141.847900,104.041252 
	C141.737961,105.580688 141.038132,107.435150 141.653442,108.587265 
	C142.627304,110.410759 144.499649,111.747398 145.960159,113.319443 
	C149.079834,116.677399 151.253952,120.491173 148.823349,124.965294 
	C147.994812,126.490387 145.503265,128.051575 143.866577,127.956734 
	C141.886536,127.841995 139.914078,126.112068 138.152618,124.794640 
	C137.733582,124.481232 138.166367,123.028946 138.207336,122.100502 
	C139.091721,122.259216 140.002304,122.332802 140.854874,122.594940 
	C142.468765,123.091202 144.049362,123.695709 145.643799,124.255241 
	C145.538132,122.217453 145.834137,120.041588 145.196518,118.186653 
	C144.708252,116.766220 142.883453,115.863174 141.933533,114.530182 
	C140.428299,112.417900 139.157425,110.138603 137.709152,107.571175 
z"/>
<path fill="#53585F" opacity="1.000000" stroke="none" 
	d="
M336.473572,104.187897 
	C332.038788,102.068031 329.648407,104.141685 329.364380,107.978233 
	C329.014648,112.702995 329.430756,117.535820 330.022308,122.258499 
	C330.346741,124.848289 332.194122,125.903992 334.739014,124.041603 
	C335.480896,123.498688 336.378906,123.169121 337.205353,122.741753 
	C337.605225,123.120461 338.005127,123.499161 338.404999,123.877861 
	C337.115631,125.247093 335.932373,127.600739 334.511932,127.753830 
	C332.404266,127.980980 329.378021,127.321716 328.065186,125.855606 
	C324.116974,121.446327 324.090027,107.153313 328.064087,102.706169 
	C329.506287,101.092300 332.568726,100.780769 334.977051,100.334724 
	C335.333038,100.268791 336.161377,102.753029 336.473572,104.187897 
z"/>
<path fill="#50555C" opacity="1.000000" stroke="none" 
	d="
M413.304291,114.745789 
	C413.606537,116.634972 413.851471,118.109734 414.075562,119.587646 
	C414.911957,125.104843 415.665863,125.477974 420.765137,123.069511 
	C421.237518,122.846367 421.968140,123.169899 422.578888,123.239586 
	C422.832184,123.688316 423.085480,124.137047 423.338776,124.585770 
	C421.413025,125.830353 419.533264,127.955070 417.547913,128.058792 
	C415.753754,128.152512 412.747589,126.429138 412.176239,124.828659 
	C409.756409,118.050087 408.485931,110.985565 411.855713,104.048447 
	C413.854584,99.933586 418.596649,98.526535 421.209808,101.164337 
	C421.699646,101.658821 421.989594,102.567924 421.960388,103.268539 
	C421.945801,103.618118 420.836823,104.333870 420.502228,104.197678 
	C413.275757,101.256477 414.736694,107.661598 413.390686,110.875183 
	C412.972412,111.873932 413.268402,113.171844 413.304291,114.745789 
z"/>
<path fill="#F5F5F6" opacity="1.000000" stroke="none" 
	d="
M200.817551,100.085693 
	C199.742676,106.265442 198.187241,112.408035 196.599747,118.677261 
	C195.005264,112.591316 193.466949,106.719742 191.787811,100.494995 
	C194.543671,100.110725 197.440323,100.079636 200.817551,100.085693 
z"/>
<path fill="#4B5058" opacity="1.000000" stroke="none" 
	d="
M92.548508,100.830544 
	C93.606903,100.960045 95.041168,101.418480 95.048752,101.899391 
	C95.184425,110.511398 95.147339,119.126137 95.147339,127.740280 
	C94.710144,127.892700 94.272942,128.045120 93.835747,128.197540 
	C93.272438,127.164688 92.234230,126.137741 92.221291,125.098045 
	C92.122078,117.123405 92.222168,109.146278 92.548508,100.830544 
z"/>
<path fill="#272D36" opacity="1.000000" stroke="none" 
	d="
M225.559174,26.947945 
	C224.475281,28.606108 223.224213,30.768299 221.375397,31.596973 
	C217.956116,33.129585 214.186829,33.881294 210.156540,34.938892 
	C212.206268,28.458408 215.630417,26.661064 225.559174,26.947945 
z"/>
<path fill="#DBDBDC" opacity="1.000000" stroke="none" 
	d="
M209.711670,101.087349 
	C209.133301,103.198883 208.098450,105.295090 206.924789,107.719925 
	C205.750580,108.015701 204.715164,107.982849 203.290985,107.957054 
	C203.157578,105.934982 203.412949,103.905846 203.719299,101.503006 
	C205.598602,101.110207 207.426880,101.091110 209.711670,101.087349 
z"/>
<path fill="#343941" opacity="1.000000" stroke="none" 
	d="
M172.665497,12.070665 
	C172.932755,14.785725 173.725891,18.330105 168.563202,16.063950 
	C169.575836,14.679340 170.947571,13.340550 172.665497,12.070665 
z"/>
<path fill="#F5F5F6" opacity="1.000000" stroke="none" 
	d="
M127.989754,52.379627 
	C126.683907,53.797119 125.397743,55.535019 124.113823,55.533367 
	C123.050140,55.532005 121.149117,53.529446 121.077293,52.326443 
	C120.814857,47.930393 120.901344,43.463493 121.475784,39.104916 
	C121.608856,38.095200 124.165665,36.878574 125.660492,36.802353 
	C126.380524,36.765640 127.794182,39.112022 127.903770,40.459785 
	C128.213348,44.266605 128.011017,48.115055 127.989754,52.379627 
z"/>
<path fill="#FEFEFE" opacity="1.000000" stroke="none" 
	d="
M293.924194,37.703339 
	C294.060364,42.440720 294.088013,46.748329 294.143341,51.055580 
	C294.181152,53.996548 292.911285,56.358055 289.883179,55.655418 
	C288.284515,55.284473 286.339386,52.882710 286.046722,51.145779 
	C285.449280,47.599957 285.607117,43.857590 285.973022,40.248817 
	C286.148041,38.522678 287.213074,35.852478 288.404633,35.522518 
	C289.933441,35.099186 291.995300,36.601013 293.924194,37.703339 
z"/>
<path fill="#E5E6E7" opacity="1.000000" stroke="none" 
	d="
M85.136490,42.607918 
	C83.733940,41.684978 81.786194,40.427544 81.966774,39.903492 
	C82.523880,38.286743 83.665482,36.092083 85.008636,35.735271 
	C86.478264,35.344864 88.816895,36.344448 90.037239,37.511536 
	C90.959679,38.393715 90.719467,40.491596 91.096497,42.608879 
	C88.828033,42.608879 87.196426,42.608879 85.136490,42.607918 
z"/>
<path fill="#DBDBDC" opacity="1.000000" stroke="none" 
	d="
M222.404053,41.825943 
	C221.306839,40.370636 219.990463,38.749756 220.145081,37.284031 
	C220.256668,36.226265 222.206451,34.838291 223.545166,34.542526 
	C226.385788,33.914936 228.266083,35.413265 229.006287,38.667290 
	C228.593369,43.556564 225.004974,41.016380 222.404053,41.825943 
z"/>
<path fill="#F8F8F8" opacity="1.000000" stroke="none" 
	d="
M262.227661,105.385086 
	C263.873566,104.440964 265.298035,103.823212 266.722534,103.205467 
	C267.272644,104.610626 268.235229,105.997963 268.296814,107.424210 
	C268.495178,112.018410 268.521942,116.636444 268.250610,121.223747 
	C268.176331,122.479759 266.824280,123.660187 266.058594,124.875290 
	C264.703094,123.943413 262.554596,123.281425 262.129639,122.032845 
	C260.309723,116.685318 259.229370,111.165138 262.227661,105.385086 
z"/>
<path fill="#F8F8F8" opacity="1.000000" stroke="none" 
	d="
M229.175262,124.287308 
	C228.938477,117.964455 228.878998,112.032051 228.882568,106.099693 
	C228.884521,102.858582 231.601013,101.928772 232.923904,103.869530 
	C234.981735,106.888496 236.564407,110.906609 236.527466,114.482437 
	C236.492661,117.851303 234.216446,121.251366 232.626373,124.490479 
	C232.391464,124.969002 230.502533,124.635559 229.175262,124.287308 
z"/>
<path fill="#FEFEFE" opacity="1.000000" stroke="none" 
	d="
M371.049072,109.237411 
	C371.054321,113.521957 371.201782,117.352524 370.888702,121.145073 
	C370.781372,122.445038 369.521027,123.649826 368.787445,124.898102 
	C367.363861,124.047188 364.874512,123.371696 364.700623,122.315109 
	C363.934113,117.658012 363.312469,112.841583 363.753082,108.188423 
	C363.927734,106.343338 366.997162,104.772346 368.748657,103.076569 
	C369.502686,104.973900 370.256714,106.871216 371.049072,109.237411 
z"/>
<path fill="#F5F5F6" opacity="1.000000" stroke="none" 
	d="
M484.542969,110.694733 
	C485.394012,119.439453 483.271790,123.822289 477.180084,124.894485 
	C477.180084,118.255524 477.127930,111.744431 477.257080,105.236938 
	C477.270660,104.553299 478.416290,103.286636 478.927063,103.339973 
	C480.118866,103.464455 481.725067,103.918900 482.291534,104.800140 
	C483.332947,106.420227 483.746429,108.443954 484.542969,110.694733 
z"/>
<path fill="#F5F5F6" opacity="1.000000" stroke="none" 
	d="
M283.366211,103.497849 
	C285.189331,105.431396 286.673950,107.533058 288.158539,109.634720 
	C287.754242,110.047653 287.349976,110.460579 286.945679,110.873512 
	C284.767670,110.873512 282.589630,110.873512 278.969788,110.873512 
	C280.530518,108.101395 281.779083,105.883682 283.366211,103.497849 
z"/>
<path fill="#F5F5F6" opacity="1.000000" stroke="none" 
	d="
M51.245678,107.808990 
	C52.795807,106.083054 54.237099,104.751930 55.678391,103.420799 
	C56.721413,105.719147 57.764439,108.017487 58.807465,110.315834 
	C58.378841,110.623421 57.950218,110.931000 57.521591,111.238579 
	C55.742954,109.328888 51.076912,114.836510 51.245678,107.808990 
z"/>
<path fill="#FEFEFE" opacity="1.000000" stroke="none" 
	d="
M213.014099,104.772186 
	C213.454620,104.826958 213.895142,104.881737 214.734039,105.212463 
	C215.412766,105.662125 215.693146,105.835831 215.973511,106.009544 
	C216.399887,107.560364 216.826248,109.111191 217.362823,111.062927 
	C214.519577,111.062927 212.471039,111.062927 209.497711,111.062927 
	C210.454514,109.038925 211.201645,107.458420 212.246231,105.427948 
	C212.700485,104.909386 212.857285,104.840782 213.014099,104.772186 
z"/>
<path fill="#5C6067" opacity="1.000000" stroke="none" 
	d="
M216.211899,105.856041 
	C215.693146,105.835831 215.412766,105.662125 215.066742,105.241852 
	C215.308640,104.565834 215.616196,104.136375 215.923752,103.706909 
	C216.099258,104.372116 216.274765,105.037331 216.211899,105.856041 
z"/>
<path fill="#5C6067" opacity="1.000000" stroke="none" 
	d="
M212.984161,104.529938 
	C212.857285,104.840782 212.700485,104.909386 212.297409,105.050568 
	C212.136185,104.658508 212.221222,104.193863 212.306274,103.729218 
	C212.522247,103.915382 212.738220,104.101540 212.984161,104.529938 
z"/>
<path fill="#F5F5F6" opacity="1.000000" stroke="none" 
	d="
M352.248352,119.948730 
	C350.943146,121.882164 349.712585,123.410843 348.481995,124.939514 
	C347.271912,123.198547 345.461060,121.612762 344.963806,119.687668 
	C343.442688,113.798836 343.698090,108.036102 348.271545,102.511024 
	C353.848907,107.570816 352.866394,113.613113 352.248352,119.948730 
z"/>
<path fill="#ECEDEE" opacity="1.000000" stroke="none" 
	d="
M130.841629,108.374741 
	C129.845596,113.937286 125.971313,109.771652 123.889977,111.417809 
	C123.434700,111.020966 122.979424,110.624123 122.524147,110.227272 
	C124.123619,107.911537 125.723083,105.595810 127.322556,103.280075 
	C128.493637,104.839203 129.664719,106.398331 130.841629,108.374741 
z"/>
<path fill="#F8F8F8" opacity="1.000000" stroke="none" 
	d="
M429.561310,123.167496 
	C428.208099,118.427528 428.684814,114.912613 434.592896,114.037582 
	C434.592896,117.722557 434.592896,121.189560 434.592896,125.409798 
	C432.692139,124.648064 431.255432,124.072296 429.561310,123.167496 
z"/>
<path fill="#ECEDEE" opacity="1.000000" stroke="none" 
	d="
M388.169250,104.097641 
	C389.029572,106.366142 389.621002,108.367477 390.363739,110.880821 
	C388.389709,111.017090 387.120697,111.134377 385.849091,111.183510 
	C384.739502,111.226387 383.626984,111.192444 381.942383,111.192444 
	C383.251343,107.652306 382.109894,103.064171 388.169250,104.097641 
z"/>
</svg>